<svg id="Layer_1_1_" enable-background="new 0 0 64 64" height="512" viewBox="0 0 64 64" width="512" xmlns="http://www.w3.org/2000/svg"><path d="m58 50c-1.76 0-3.24 1.149-3.774 2.73l-15.226-4.479v-1.777c2.686-1.22 4.994-3.117 6.717-5.474h2.283c2.757 0 5-2.243 5-5v-3.184c1.161-.414 2-1.514 2-2.816v-8c0-1.654-1.346-3-3-3h-.051c-.523-9.459-8.362-17-17.949-17h-4c-9.587 0-17.426 7.541-17.949 17h-.051c-1.654 0-3 1.346-3 3v8c0 1.654 1.346 3 3 3h3.128c.709 6.012 4.564 11.063 9.872 13.474v1.777l-15.226 4.479c-.534-1.581-2.014-2.73-3.774-2.73-2.206 0-4 1.794-4 4v7c0 .553.447 1 1 1h58c.553 0 1-.447 1-1v-7c0-2.206-1.794-4-4-4zm-11 5h-5v-3.781l5 1.47zm-5 2h5v3h-5zm7-3.722 5 1.47v5.252h-5zm-1-14.278h-1.008c.979-1.827 1.627-3.853 1.88-6h2.128v3c0 1.654-1.346 3-3 3zm5-17v8c0 .552-.448 1-1 1h-3v-10h3c.552 0 1 .448 1 1zm-23-18h4c8.485 0 15.429 6.644 15.949 15h-1.444c-1.806-7.447-8.511-13-16.505-13s-14.699 5.553-16.505 13h-1.444c.52-8.356 7.464-15 15.949-15zm-8 7.851c2.657-2.386 6.156-3.851 10-3.851s7.343 1.465 10 3.851v6.149c0 2.673-1.039 5.185-2.927 7.073s-4.4 2.927-7.073 2.927c-5.514 0-10-4.486-10-10zm-10 19.149c-.552 0-1-.448-1-1v-8c0-.552.448-1 1-1h3v10zm5.302 3h6.698v-2h-6.949c-.022-.332-.051-.662-.051-1v-1h5v-2h-5v-2h3v-2h-3v-1c0-3.362 1.125-6.458 3-8.962v3.962c0 6.617 5.383 12 12 12 3.207 0 6.221-1.247 8.487-3.513s3.513-5.28 3.513-8.487v-3.962c1.875 2.504 3 5.6 3 8.962v1h-3v2h3v2h-5v2h5v1c0 .338-.029.668-.051 1h-6.949v2h6.698c-.368 1.808-1.074 3.491-2.031 5h-6.667c0-1.654-1.346-3-3-3h-6c-1.654 0-3 1.346-3 3v2c0 1.654 1.346 3 3 3h6c1.654 0 3-1.346 3-3h5.149c-2.748 3.061-6.721 5-11.149 5-7.244 0-13.304-5.161-14.698-12zm18.698 5v2c0 .552-.448 1-1 1h-6c-.552 0-1-.448-1-1v-2c0-.552.448-1 1-1h6c.552 0 1 .448 1 1zm-4 9c1.74 0 3.418-.265 5-.753v1.172c-3.095 1.839-6.905 1.839-10 0v-1.172c1.582.488 3.26.753 5 .753zm-6.143 2.085c1.892 1.154 4.015 1.737 6.143 1.737s4.251-.584 6.143-1.737l1.857.546v9.369h-16v-9.369zm-15.857 4.663 5-1.47v6.722h-5zm12 .252h-5v-2.311l5-1.47zm-5 2h5v3h-5zm-9 3h-4v-6c0-1.103.897-2 2-2s2 .897 2 2zm52 0h-4v-6c0-1.103.897-2 2-2s2 .897 2 2z"/><path d="m38 12h2v2h-2z"/><path d="m38 16h2v4h-2z"/><path d="m11 35h-6c-1.654 0-3 1.346-3 3v8c0 1.654 1.346 3 3 3h12c.404 0 .77-.243.924-.617.155-.374.069-.804-.217-1.09l-3.707-3.707v-5.586c0-1.654-1.346-3-3-3zm3.586 12h-9.586c-.552 0-1-.448-1-1v-8c0-.552.448-1 1-1h6c.552 0 1 .448 1 1v6c0 .266.105.52.293.707z"/><path d="m6 39h4v2h-4z"/><path d="m6 43h4v2h-4z"/><path d="m31 56h2v2h-2z"/><path d="m35 56h2v2h-2z"/><path d="m27 56h2v2h-2z"/></svg>