<svg id="Layer_1_1_" enable-background="new 0 0 64 64" height="512" viewBox="0 0 64 64" width="512" xmlns="http://www.w3.org/2000/svg"><path d="m62 20c0-5.168-2.823-9.681-7-12.106v-4.894c0-.553-.448-1-1-1h-51c-.552 0-1 .447-1 1v54c0 2.757 2.243 5 5 5h50c2.757 0 5-2.243 5-5v-4c0-.553-.448-1-1-1h-6v-19.894c4.177-2.425 7-6.938 7-12.106zm-21.883 9.025c.423-2.145 2.173-3.743 4.347-3.975l2.679 4.465c.18.3.506.485.857.485s.677-.185.857-.485l2.679-4.465c2.174.232 3.924 1.83 4.347 3.975-2.111 1.847-4.865 2.975-7.883 2.975s-5.772-1.128-7.883-2.975zm11.883-10.025c0 2.206-1.794 4-4 4s-4-1.794-4-4zm0-2h-8v-2.132l1.445.964c.238.158.535.208.812.135.277-.074.509-.263.638-.52l1.105-2.211 1.105 2.211c.128.257.361.445.638.52.278.075.573.024.812-.135l1.445-.964zm-2.766 8-1.234 2.057-1.234-2.057zm10.766-5c0 2.763-.948 5.304-2.523 7.334-.884-2.165-2.805-3.758-5.134-4.206 1.024-1.076 1.657-2.528 1.657-4.128v-1-5c0-.369-.203-.708-.528-.882-.325-.175-.719-.155-1.026.05l-2.058 1.372-1.493-2.987c-.339-.678-1.45-.678-1.789 0l-1.493 2.987-2.058-1.372c-.308-.205-.702-.225-1.026-.05-.326.174-.529.513-.529.882v5 1c0 1.6.633 3.052 1.657 4.128-2.329.448-4.25 2.041-5.134 4.206-1.575-2.03-2.523-4.571-2.523-7.334 0-6.617 5.383-12 12-12s12 5.383 12 12zm0 37c0 1.654-1.346 3-3 3h-46c.649-.867 1-1.91 1-3v-3h48zm-7-5h-42c-.552 0-1 .447-1 1v4c0 .795-.313 1.551-.872 2.118-.577.569-1.333.882-2.128.882-1.654 0-3-1.346-3-3v-53h49v2.939c-1.555-.598-3.237-.939-5-.939-7.72 0-14 6.28-14 14 0 4.233 1.896 8.025 4.875 10.594l-6.248 5.406h-8.627v2h9c.24 0 .473-.087.654-.244l6.866-5.942c2.167 1.377 4.728 2.186 7.48 2.186 1.763 0 3.445-.341 5-.939z"/><path d="m9 8h9v2h-9z"/><path d="m24 8h9v2h-9z"/><path d="m9 12h9v2h-9z"/><path d="m24 12h9v2h-9z"/><path d="m9 16h9v2h-9z"/><path d="m24 16h9v2h-9z"/><path d="m9 20h9v2h-9z"/><path d="m24 20h9v2h-9z"/><path d="m9 24h9v2h-9z"/><path d="m24 24h9v2h-9z"/><path d="m9 28h9v2h-9z"/><path d="m24 28h9v2h-9z"/><path d="m9 32h9v2h-9z"/><path d="m24 32h9v2h-9z"/><path d="m9 36h9v2h-9z"/><path d="m39 36h9v2h-9z"/><path d="m9 40h9v2h-9z"/><path d="m24 40h9v2h-9z"/><path d="m39 40h9v2h-9z"/><path d="m9 44h9v2h-9z"/><path d="m24 44h9v2h-9z"/><path d="m39 44h9v2h-9z"/><path d="m9 48h9v2h-9z"/><path d="m24 48h9v2h-9z"/><path d="m39 48h9v2h-9z"/></svg>