<svg id="Layer_1_1_" enable-background="new 0 0 64 64" height="512" viewBox="0 0 64 64" width="512" xmlns="http://www.w3.org/2000/svg"><path d="m6 16h2v2h-2z"/><path d="m10 16h6v2h-6z"/><path d="m27 16h2v2h-2z"/><path d="m31 16h6v2h-6z"/><path d="m48 16h2v2h-2z"/><path d="m52 16h6v2h-6z"/><path d="m6 24h2v2h-2z"/><path d="m10 24h6v2h-6z"/><path d="m27 24h2v2h-2z"/><path d="m31 24h6v2h-6z"/><path d="m48 24h2v2h-2z"/><path d="m52 24h6v2h-6z"/><path d="m6 32h2v2h-2z"/><path d="m10 32h6v2h-6z"/><path d="m27 32h2v2h-2z"/><path d="m31 32h6v2h-6z"/><path d="m48 32h2v2h-2z"/><path d="m52 32h6v2h-6z"/><path d="m6 40h2v2h-2z"/><path d="m10 40h6v2h-6z"/><path d="m27 40h2v2h-2z"/><path d="m31 40h6v2h-6z"/><path d="m48 40h2v2h-2z"/><path d="m52 40h6v2h-6z"/><path d="m6 48h2v2h-2z"/><path d="m10 48h6v2h-6z"/><path d="m27 48h2v2h-2z"/><path d="m31 48h6v2h-6z"/><path d="m48 48h2v2h-2z"/><path d="m52 48h6v2h-6z"/><path d="m6 56h2v2h-2z"/><path d="m10 56h6v2h-6z"/><path d="m27 56h2v2h-2z"/><path d="m31 56h6v2h-6z"/><path d="m48 56h2v2h-2z"/><path d="m52 56h6v2h-6z"/><path d="m53 2c-1.302 0-2.402.839-2.816 2h-15.368c-.414-1.161-1.514-2-2.816-2s-2.402.839-2.816 2h-15.368c-.414-1.161-1.514-2-2.816-2s-2.402.839-2.816 2h-6.184v2h6.184c.302.847.969 1.514 1.816 1.816v4.184h-7c-.553 0-1 .448-1 1v48c0 .552.447 1 1 1h16c.553 0 1-.448 1-1v-48c0-.552-.447-1-1-1h-7v-4.184c.847-.302 1.514-.969 1.816-1.816h15.369c.301.847.968 1.514 1.815 1.816v4.184h-7c-.553 0-1 .448-1 1v48c0 .552.447 1 1 1h16c.553 0 1-.448 1-1v-48c0-.552-.447-1-1-1h-7v-4.184c.847-.302 1.514-.969 1.816-1.816h15.369c.301.847.968 1.514 1.815 1.816v4.184h-7c-.553 0-1 .448-1 1v48c0 .552.447 1 1 1h16c.553 0 1-.448 1-1v-48c0-.552-.447-1-1-1h-7v-4.184c.847-.302 1.514-.969 1.816-1.816h6.184v-2h-6.184c-.414-1.161-1.514-2-2.816-2zm-35 34h-14v-6h14zm0 8h-14v-6h14zm-14 2h14v6h-14zm14-18h-14v-6h14zm0 32h-14v-6h14zm0-40h-14v-6h14zm21 16h-14v-6h14zm0 8h-14v-6h14zm-14 2h14v6h-14zm14-18h-14v-6h14zm0 32h-14v-6h14zm0-40h-14v-6h14zm21 16h-14v-6h14zm0 8h-14v-6h14zm-14 2h14v6h-14zm14-18h-14v-6h14zm0 32h-14v-6h14zm0-40h-14v-6h14zm-49-14c-.552 0-1-.449-1-1s.448-1 1-1 1 .449 1 1-.448 1-1 1zm21 0c-.552 0-1-.449-1-1s.448-1 1-1 1 .449 1 1-.448 1-1 1zm21 0c-.552 0-1-.449-1-1s.448-1 1-1 1 .449 1 1-.448 1-1 1z"/></svg>