<svg id="Layer_1_1_" enable-background="new 0 0 64 64" height="512" viewBox="0 0 64 64" width="512" xmlns="http://www.w3.org/2000/svg"><path d="m9 30c-.553 0-1 .447-1 1v5h-5c-.553 0-1 .447-1 1v14c0 .553.447 1 1 1h5v9c0 .553.447 1 1 1h46c.553 0 1-.447 1-1v-9h5c.553 0 1-.447 1-1v-14c0-.553-.447-1-1-1h-5v-5c0-.553-.447-1-1-1zm-5 20v-12h4v12zm56-12v12h-4v-12zm-6-6v28h-44v-28z"/><path d="m21 53c4.963 0 9-4.037 9-9s-4.037-9-9-9-9 4.037-9 9 4.037 9 9 9zm0-11c1.103 0 2 .897 2 2s-.897 2-2 2-2-.897-2-2 .897-2 2-2zm-2.019 5.433c.316.186.656.33 1.019.425v3.062c-1.183-.17-2.269-.636-3.184-1.322zm3.019.425c.363-.094.704-.238 1.019-.425l2.165 2.165c-.915.686-2.001 1.152-3.184 1.322zm2.433-1.839c.186-.316.33-.656.425-1.019h3.062c-.17 1.183-.636 2.269-1.322 3.184zm.425-3.019c-.094-.363-.238-.704-.425-1.019l2.165-2.165c.686.915 1.151 2.001 1.322 3.184zm-1.839-2.433c-.316-.186-.656-.33-1.019-.425v-3.062c1.183.17 2.269.636 3.184 1.322zm-3.019-.425c-.363.094-.704.238-1.019.425l-2.165-2.165c.915-.686 2.001-1.151 3.184-1.322zm-2.433 1.839c-.186.316-.33.656-.425 1.019h-3.062c.17-1.183.636-2.269 1.322-3.184zm-.425 3.019c.094.363.238.704.425 1.019l-2.165 2.165c-.686-.915-1.152-2.001-1.322-3.184z"/><path d="m27 55h2v2h-2z"/><path d="m31 55h2v2h-2z"/><path d="m35 55h2v2h-2z"/><path d="m43 53c4.963 0 9-4.037 9-9s-4.037-9-9-9-9 4.037-9 9 4.037 9 9 9zm0-11c1.103 0 2 .897 2 2s-.897 2-2 2-2-.897-2-2 .897-2 2-2zm-2.019 5.433c.316.186.656.33 1.019.425v3.062c-1.183-.17-2.269-.636-3.184-1.322zm3.019.425c.363-.094.704-.238 1.019-.425l2.165 2.165c-.915.686-2.001 1.152-3.184 1.322zm2.433-1.839c.186-.316.33-.656.425-1.019h3.062c-.17 1.183-.636 2.269-1.322 3.184zm.425-3.019c-.094-.363-.238-.704-.425-1.019l2.165-2.165c.686.915 1.151 2.001 1.322 3.184zm-1.839-2.433c-.316-.186-.656-.33-1.019-.425v-3.062c1.183.17 2.269.636 3.184 1.322zm-3.019-.425c-.363.094-.704.238-1.019.425l-2.165-2.165c.915-.686 2.001-1.151 3.184-1.322zm-2.433 1.839c-.186.316-.33.656-.425 1.019h-3.062c.17-1.183.636-2.269 1.322-3.184zm-.425 3.019c.094.363.238.704.425 1.019l-2.165 2.165c-.686-.915-1.152-2.001-1.322-3.184z"/><path d="m61.515 14.143-5-3c-.316-.189-.713-.189-1.029 0l-5 3c-.301.18-.486.505-.486.857v2h-5c-.553 0-1 .447-1 1v8.586l-1.293-1.293-1.414 1.414 3 3c.195.195.451.293.707.293s.512-.098.707-.293l3-3-1.414-1.414-1.293 1.293v-7.586h4v2c0 .352.185.677.485.857l5 3c.159.095.337.143.515.143s.356-.048.515-.143l5-3c.3-.18.485-.505.485-.857v-6c0-.352-.185-.677-.485-.857zm-1.515 6.291-4 2.4-4-2.4v-4.867l4-2.4 4 2.4z"/><path d="m38.707 26.707-1.414-1.414-1.293 1.293v-5.172l3.707-3.707c.188-.187.293-.441.293-.707v-3h4c.553 0 1-.447 1-1v-10c0-.553-.447-1-1-1h-10c-.553 0-1 .447-1 1v10c0 .553.447 1 1 1h4v2.586l-3.707 3.707c-.188.187-.293.441-.293.707v5.586l-1.293-1.293-1.414 1.414 3 3c.195.195.451.293.707.293s.512-.098.707-.293zm-3.707-22.707h8v8h-8z"/><path d="m29.707 26.707-1.414-1.414-1.293 1.293v-4.586c0-.266-.105-.52-.293-.707l-3.707-3.707v-2.586h4c.34 0 .656-.173.841-.459.184-.285.21-.646.069-.955l-5-11c-.162-.357-.517-.586-.91-.586s-.748.229-.91.586l-5 11c-.141.31-.114.67.069.955.185.286.501.459.841.459h4v3c0 .266.105.52.293.707l3.707 3.707v4.172l-1.293-1.293-1.414 1.414 3 3c.195.195.451.293.707.293s.512-.098.707-.293zm-7.707-21.29 3.447 7.583h-6.895z"/><path d="m20.707 26.707-1.414-1.414-1.293 1.293v-7.586c0-.553-.447-1-1-1h-3.09c-.478-2.833-2.942-5-5.91-5-3.309 0-6 2.691-6 6s2.691 6 6 6c2.967 0 5.431-2.167 5.91-5h2.09v6.586l-1.293-1.293-1.414 1.414 3 3c.195.195.451.293.707.293s.512-.098.707-.293zm-12.707-3.707c-2.206 0-4-1.794-4-4s1.794-4 4-4 4 1.794 4 4-1.794 4-4 4z"/></svg>