<svg id="Layer_1_1_" enable-background="new 0 0 64 64" height="512" viewBox="0 0 64 64" width="512" xmlns="http://www.w3.org/2000/svg"><path d="m32 48c4.411 0 8-3.589 8-8s-3.589-8-8-8-8 3.589-8 8 3.589 8 8 8zm0-14c3.309 0 6 2.691 6 6s-2.691 6-6 6-6-2.691-6-6 2.691-6 6-6z"/><path d="m31 36h2v2h-2z"/><path d="m31 40h2v4h-2z"/><path d="m61 34h-16v-7c0-.553-.448-1-1-1h-8.694l3.904-2.607c.501.376 1.117.607 1.79.607s1.289-.231 1.79-.607l4.31 2.878c-.059.235-.1.476-.1.729 0 1.654 1.346 3 3 3s3-1.346 3-3-1.346-3-3-3c-.673 0-1.289.231-1.79.607l-4.31-2.878c.059-.235.1-.476.1-.729 0-1.654-1.346-3-3-3s-3 1.346-3 3c0 .253.041.494.1.729l-4.31 2.878c-.239-.179-.504-.32-.79-.423v-9.985c.675.247 1.262.718 1.622 1.38.351.643 1.406.643 1.757 0 .529-.975 1.534-1.579 2.621-1.579s2.092.604 2.622 1.579c.175.321.512.521.878.521.367 0 .704-.2.878-.522.358-.658.944-1.157 1.65-1.405.476-.167.753-.663.646-1.155-1.386-6.384-7.137-11.018-13.674-11.018s-12.288 4.634-13.674 11.018c-.107.492.169.988.646 1.155.707.248 1.292.747 1.65 1.405.175.322.512.522.878.522s.703-.2.878-.521c.53-.975 1.535-1.579 2.622-1.579s2.092.604 2.622 1.579c.351.643 1.406.643 1.757 0 .36-.662.947-1.133 1.622-1.38v9.985c-.286.102-.551.243-.79.423l-4.31-2.878c.058-.235.099-.476.099-.729 0-1.654-1.346-3-3-3s-3 1.346-3 3c0 .253.041.494.1.729l-4.31 2.878c-.501-.376-1.117-.607-1.79-.607-1.654 0-3 1.346-3 3s1.346 3 3 3 3-1.346 3-3c0-.253-.041-.494-.1-.729l4.31-2.878c.501.376 1.117.607 1.79.607s1.289-.231 1.79-.607l3.904 2.607h-8.694c-.552 0-1 .447-1 1v7h-16c-.552 0-1 .447-1 1v26c0 .553.448 1 1 1h58c.552 0 1-.447 1-1v-26c0-.553-.448-1-1-1zm-11-8c.551 0 1 .448 1 1s-.449 1-1 1-1-.448-1-1 .449-1 1-1zm-9-6c.551 0 1 .448 1 1s-.449 1-1 1-1-.448-1-1 .449-1 1-1zm-12.5-6.55c-.922-.916-2.173-1.45-3.5-1.45-1.328 0-2.579.534-3.501 1.451-.306-.303-.65-.564-1.024-.78 1.464-5.068 6.19-8.671 11.525-8.671s10.061 3.603 11.525 8.671c-.375.216-.718.478-1.024.78-.922-.917-2.173-1.451-3.501-1.451-1.327 0-2.578.534-3.5 1.45-.922-.916-2.173-1.45-3.5-1.45s-2.578.534-3.5 1.45zm3.5 12.55c.551 0 1 .448 1 1s-.449 1-1 1-1-.448-1-1 .449-1 1-1zm-18 2c-.551 0-1-.448-1-1s.449-1 1-1 1 .448 1 1-.449 1-1 1zm9-6c-.551 0-1-.448-1-1s.449-1 1-1 1 .448 1 1-.449 1-1 1zm-19 14h15v24h-15zm17-1v-7h8.184c.414 1.161 1.514 2 2.816 2s2.402-.839 2.816-2h8.184v7 25h-6v-8h2v-2h-3-8-3v2h2v8h-6zm8 25v-8h6v8zm31 0h-15v-24h15z"/><path d="m47 38h2v2h-2z"/><path d="m51 38h2v2h-2z"/><path d="m55 38h2v2h-2z"/><path d="m47 42h2v2h-2z"/><path d="m51 42h2v2h-2z"/><path d="m55 42h2v2h-2z"/><path d="m47 46h2v2h-2z"/><path d="m51 46h2v2h-2z"/><path d="m55 46h2v2h-2z"/><path d="m47 50h2v2h-2z"/><path d="m51 50h2v2h-2z"/><path d="m55 50h2v2h-2z"/><path d="m15 38h2v2h-2z"/><path d="m11 38h2v2h-2z"/><path d="m7 38h2v2h-2z"/><path d="m15 42h2v2h-2z"/><path d="m11 42h2v2h-2z"/><path d="m7 42h2v2h-2z"/><path d="m15 46h2v2h-2z"/><path d="m11 46h2v2h-2z"/><path d="m7 46h2v2h-2z"/><path d="m15 50h2v2h-2z"/><path d="m11 50h2v2h-2z"/><path d="m7 50h2v2h-2z"/></svg>