<svg id="Layer_1_1_" enable-background="new 0 0 64 64" height="512" viewBox="0 0 64 64" width="512" xmlns="http://www.w3.org/2000/svg"><path d="m36.707 13.707-1.414-1.414-2.293 2.293v-4.586h4c.553 0 1-.448 1-1v-6c0-.552-.447-1-1-1h-10c-.553 0-1 .448-1 1v6c0 .552.447 1 1 1h4v4.586l-2.293-2.293-1.414 1.414 4 4c.195.195.451.293.707.293s.512-.098.707-.293zm-8.707-9.707h8v4h-8z"/><path d="m42.291 31.808-1.784-.732c-.121-.352-.262-.694-.422-1.024l.742-1.776c.139-.333.088-.713-.133-.998-.571-.739-1.235-1.402-1.972-1.973-.285-.219-.665-.27-.998-.132l-1.776.742c-.33-.16-.672-.301-1.023-.421l-.732-1.785c-.137-.333-.441-.567-.799-.613-1.043-.132-1.744-.132-2.787 0-.357.045-.662.279-.799.613l-.732 1.785c-.352.12-.693.261-1.023.421l-1.776-.743c-.331-.139-.714-.09-.998.132-.737.571-1.401 1.235-1.972 1.973-.221.285-.271.666-.133.998l.743 1.776c-.16.329-.302.671-.423 1.024l-1.784.732c-.333.137-.566.442-.612.799-.068.522-.098.965-.098 1.394s.03.872.097 1.393c.046.357.279.663.612.799l1.784.732c.121.352.262.694.422 1.024l-.742 1.776c-.139.333-.088.713.133.998.571.738 1.234 1.402 1.972 1.973.284.221.667.27.998.132l1.776-.743c.33.16.672.301 1.023.422l.732 1.784c.137.333.441.567.799.613.522.066.964.097 1.394.097s.872-.031 1.394-.097c.357-.045.662-.279.799-.613l.732-1.784c.353-.121.694-.262 1.023-.422l1.776.743c.329.137.712.088.998-.132.735-.57 1.399-1.233 1.972-1.973.221-.285.271-.666.133-.998l-.743-1.776c.16-.329.302-.671.423-1.024l1.784-.732c.333-.137.566-.442.612-.799.067-.521.097-.964.097-1.393s-.03-.872-.097-1.393c-.046-.357-.279-.663-.612-.799zm-1.313 2.761-1.665.683c-.284.117-.499.357-.582.653-.152.535-.361 1.042-.622 1.507-.15.269-.169.592-.051.875l.691 1.652c-.253.287-.523.558-.81.81l-1.652-.691c-.284-.117-.606-.1-.875.051-.465.261-.972.47-1.507.622-.296.083-.536.298-.652.583l-.684 1.665c-.4.029-.738.029-1.139 0l-.684-1.665c-.116-.284-.356-.499-.652-.583-.533-.151-1.04-.361-1.508-.622-.269-.15-.59-.167-.874-.05l-1.652.691c-.286-.252-.557-.523-.81-.81l.69-1.652c.118-.284.1-.606-.05-.874-.262-.466-.471-.974-.622-1.508-.083-.295-.298-.536-.582-.653l-1.665-.683c-.014-.201-.021-.388-.021-.57s.007-.369.022-.569l1.665-.683c.284-.117.499-.357.582-.653.152-.535.361-1.042.622-1.507.15-.269.169-.592.051-.875l-.691-1.652c.253-.287.523-.557.81-.81l1.652.691c.284.118.605.1.874-.05.468-.262.975-.471 1.507-.621.296-.083.537-.299.653-.583l.684-1.666c.4-.029.738-.029 1.139 0l.684 1.666c.116.284.357.5.653.583.532.15 1.039.359 1.507.621.269.15.59.169.874.05l1.652-.69c.286.252.557.523.81.81l-.69 1.652c-.118.284-.1.606.05.874.262.466.471.974.622 1.508.083.295.298.536.582.653l1.665.683c.014.199.021.386.021.568s-.007.369-.022.569z"/><path d="m31 29h2v2h-2z"/><path d="m31 37h2v2h-2z"/><path d="m35 33h2v2h-2z"/><path d="m27 33h2v2h-2z"/><path d="m31 33h2v2h-2z"/><path d="m51 30c.266 0 .52-.105.707-.293l3.707-3.707h.77c.414 1.161 1.514 2 2.816 2 1.654 0 3-1.346 3-3s-1.346-3-3-3c-1.302 0-2.402.839-2.816 2h-1.184c-.266 0-.52.105-.707.293l-3.707 3.707h-1.586v-5c0-2.757-2.243-5-5-5h-24c-2.757 0-5 2.243-5 5v5h-1.586l-3.707-3.707c-.187-.188-.441-.293-.707-.293h-1.184c-.414-1.161-1.514-2-2.816-2-1.654 0-3 1.346-3 3s1.346 3 3 3c1.302 0 2.402-.839 2.816-2h.77l3.707 3.707c.187.188.441.293.707.293h2v3h-7.184c-.414-1.161-1.514-2-2.816-2-1.654 0-3 1.346-3 3s1.346 3 3 3c1.302 0 2.402-.839 2.816-2h7.184v3h-2c-.266 0-.52.105-.707.293l-3.707 3.707h-.77c-.414-1.161-1.514-2-2.816-2-1.654 0-3 1.346-3 3s1.346 3 3 3c1.302 0 2.402-.839 2.816-2h1.184c.266 0 .52-.105.707-.293l3.707-3.707h1.586v5c0 2.757 2.243 5 5 5h7v3h-3c-.417 0-.79.258-.937.648-.146.39-.035.83.278 1.104l8 7c.189.165.424.248.659.248s.47-.083.658-.248l8-7c.313-.274.425-.714.278-1.104-.146-.39-.519-.648-.936-.648h-3v-3h7c2.757 0 5-2.243 5-5v-5h1.586l3.707 3.707c.187.188.441.293.707.293h1.184c.414 1.161 1.514 2 2.816 2 1.654 0 3-1.346 3-3s-1.346-3-3-3c-1.302 0-2.402.839-2.816 2h-.77l-3.707-3.707c-.187-.188-.441-.293-.707-.293h-2v-3h7.184c.414 1.161 1.514 2 2.816 2 1.654 0 3-1.346 3-3s-1.346-3-3-3c-1.302 0-2.402.839-2.816 2h-7.184v-3zm8-6c.552 0 1 .449 1 1s-.448 1-1 1-1-.449-1-1 .448-1 1-1zm-54 2c-.552 0-1-.449-1-1s.448-1 1-1 1 .449 1 1-.448 1-1 1zm0 9c-.552 0-1-.449-1-1s.448-1 1-1 1 .449 1 1-.448 1-1 1zm0 9c-.552 0-1-.449-1-1s.448-1 1-1 1 .449 1 1-.448 1-1 1zm31 11h1.339l-5.339 4.671-5.339-4.671h1.339c.553 0 1-.448 1-1v-4h6v4c0 .552.447 1 1 1zm11-10c0 1.654-1.346 3-3 3h-24c-1.654 0-3-1.346-3-3v-22c0-1.654 1.346-3 3-3h24c1.654 0 3 1.346 3 3zm12-3c.552 0 1 .449 1 1s-.448 1-1 1-1-.449-1-1 .448-1 1-1zm0-9c.552 0 1 .449 1 1s-.448 1-1 1-1-.449-1-1 .448-1 1-1z"/></svg>