<svg id="Layer_1_1_" enable-background="new 0 0 64 64" height="512" viewBox="0 0 64 64" width="512" xmlns="http://www.w3.org/2000/svg"><path d="m2 40v18c0 3.158 8.172 4 13 4s13-.842 13-4v-18c0-3.158-8.172-4-13-4s-13 .842-13 4zm2 2.304c2.729 1.292 7.662 1.696 11 1.696 3.34 0 8.277-.405 11.005-1.699l.008 3.627c-.355.744-4.338 2.072-11.013 2.072s-10.658-1.328-11-2zm0 6c2.729 1.292 7.662 1.696 11 1.696 3.34 0 8.277-.405 11.005-1.699l.008 3.627c-.355.744-4.338 2.072-11.013 2.072s-10.658-1.328-11-2zm11 11.696c-6.675 0-10.658-1.328-11-2v-3.696c2.729 1.292 7.662 1.696 11 1.696 3.34 0 8.277-.405 11.005-1.699l.008 3.627c-.355.744-4.338 2.072-11.013 2.072zm0-22c6.465 0 10.405 1.246 10.969 2-.563.754-4.504 2-10.969 2s-10.405-1.246-10.969-2c.564-.754 4.504-2 10.969-2z"/><path d="m11.707 15.707 2.293-2.293v19.586h2v-19.586l2.293 2.293 1.414-1.414-4-4c-.391-.391-1.023-.391-1.414 0l-4 4z"/><path d="m53.707 49.293-4-4-1.414 1.414 2.293 2.293h-19.586v2h19.586l-2.293 2.293 1.414 1.414 4-4c.391-.391.391-1.023 0-1.414z"/><path d="m34.707 30.707 17.293-17.293v3.586h2v-6c0-.552-.447-1-1-1h-6v2h3.586l-17.293 17.293z"/><path d="m29 61h2v2h-2z"/><path d="m33 61h2v2h-2z"/><path d="m37 61h2v2h-2z"/><path d="m41 61h2v2h-2z"/><path d="m45 61h2v2h-2z"/><path d="m49 61h2v2h-2z"/><path d="m53 61h2v2h-2z"/><path d="m57 61h2v2h-2z"/><path d="m61 61h2v2h-2z"/><path d="m61 57h2v2h-2z"/><path d="m61 53h2v2h-2z"/><path d="m61 49h2v2h-2z"/><path d="m61 45h2v2h-2z"/><path d="m61 41h2v2h-2z"/><path d="m61 37h2v2h-2z"/><path d="m61 33h2v2h-2z"/><path d="m61 29h2v2h-2z"/><path d="m61 25h2v2h-2z"/><path d="m61 21h2v2h-2z"/><path d="m61 17h2v2h-2z"/><path d="m61 13h2v2h-2z"/><path d="m61 9h2v2h-2z"/><path d="m61 5h2v2h-2z"/><path d="m61 1h2v2h-2z"/><path d="m57 1h2v2h-2z"/><path d="m53 1h2v2h-2z"/><path d="m49 1h2v2h-2z"/><path d="m45 1h2v2h-2z"/><path d="m41 1h2v2h-2z"/><path d="m37 1h2v2h-2z"/><path d="m33 1h2v2h-2z"/><path d="m29 1h2v2h-2z"/><path d="m25 1h2v2h-2z"/><path d="m21 1h2v2h-2z"/><path d="m17 1h2v2h-2z"/><path d="m13 1h2v2h-2z"/><path d="m9 1h2v2h-2z"/><path d="m5 1h2v2h-2z"/><path d="m1 1h2v2h-2z"/><path d="m1 5h2v2h-2z"/><path d="m1 9h2v2h-2z"/><path d="m1 13h2v2h-2z"/><path d="m1 17h2v2h-2z"/><path d="m1 21h2v2h-2z"/><path d="m1 25h2v2h-2z"/><path d="m1 29h2v2h-2z"/><path d="m1 33h2v2h-2z"/></svg>