<svg id="Layer_1_1_" enable-background="new 0 0 64 64" height="512" viewBox="0 0 64 64" width="512" xmlns="http://www.w3.org/2000/svg"><path d="m55 2c-4.383 0-7 2.99-7 8 0 5.322 6.034 11.447 6.291 11.705.188.189.443.295.709.295s.521-.106.709-.295c.257-.258 6.291-6.383 6.291-11.705 0-5.01-2.617-8-7-8zm0 17.529c-1.529-1.719-5-6.006-5-9.529 0-3.869 1.775-6 5-6s5 2.131 5 6c0 3.523-3.471 7.811-5 9.529z"/><path d="m55 6c-1.654 0-3 1.346-3 3s1.346 3 3 3 3-1.346 3-3-1.346-3-3-3zm0 4c-.552 0-1-.448-1-1s.448-1 1-1 1 .448 1 1-.448 1-1 1z"/><path d="m40 42c0-1.654-1.346-3-3-3s-3 1.346-3 3 1.346 3 3 3 3-1.346 3-3zm-4 0c0-.552.448-1 1-1s1 .448 1 1-.448 1-1 1-1-.448-1-1z"/><path d="m16 3c-5.229 0-14 2.079-14 16 0 6.517 4.224 13.852 7.909 19.015-.396.037-.739.297-.862.682l-7 22.001c-.097.304-.042.636.146.894.188.256.488.408.807.408h58c.319 0 .619-.152.808-.41.188-.257.242-.589.146-.893l-7-22.001c-.134-.414-.518-.696-.954-.696h-11.225c-1.177-1.926-3.158-3-5.775-3s-4.599 1.074-5.775 3h-9.123c3.682-5.162 7.898-12.49 7.898-19 0-13.921-8.771-16-14-16zm0 2c5.475 0 12 2.429 12 14 0 9.033-9.291 20.381-12 23.496-2.709-3.115-12-14.463-12-23.496 0-11.571 6.525-14 12-14zm-8.442 44.972 10.028 10.028h-13.219zm23.831-1.989c1.126 2.236 2.689 4.232 3.748 5.459l-17.807 3.474-5.54-5.54 16.343-6.355zm16.166 5.074 5.4 6.943h-14.486l-3.706-4.447zm-15.032 2.933 3.341 4.01h-15.45l-1.378-1.378zm22.966 4.01-5.734-7.372 7.092-1.384 2.786 8.756zm-5.537-20-.122.189c-.011.011-.011.021-.011.04.011.011.011.021.03.03l1.601 1.021c0 .01.01.01.02.01.021 0 .04-.01.05-.021l.816-1.269h.933l2.967 9.325-16.652 3.249c1.856-2.303 4.416-6.104 4.416-9.574 0-1.104-.134-2.103-.379-3zm-12.952-3c3.225 0 5 2.131 5 6 0 3.523-3.471 7.811-5 9.529-1.529-1.719-5-6.006-5-9.529 0-3.869 1.775-6 5-6zm-6.916 7.093-4.499-4.093h4.794c-.245.897-.379 1.896-.379 3 0 .361.032.727.084 1.093zm-7.47-4.093 3.867 3.518-16.235 6.314-2.006-2.006 2.49-7.826h.644c2.067 2.704 3.707 4.481 3.894 4.682.189.203.455.318.732.318s.543-.115.731-.318c.187-.201 1.827-1.977 3.894-4.682z"/><path d="m47.12 48.01c.01.01.02.01.029.01h.011c.01 0 .02-.01.029-.02l1.08-1.681c.011-.01.011-.02.011-.029s0-.01 0-.01 0-.011-.011-.011c0-.01-.01-.02-.01-.02l-1.6-1.03c-.021-.01-.051-.01-.07.01v.011l-1.08 1.68c-.02.02-.01.05.01.06z"/><path d="m49.28 44.649c.01 0 .02.011.029.011s.03-.011.04-.03l1.08-1.68c.01-.011.01-.021.01-.03 0 0 0 0 0-.01 0-.011 0-.011 0-.011-.01 0-.01-.01-.02-.02l-1.601-1.03c-.02-.01-.039 0-.06.01l-.01.011-1.08 1.68c-.01.01-.01.03-.01.04s.01.02.02.03z"/><path d="m54 34c0 .03.02.05.05.05h1.9c.029 0 .05-.02.05-.05v-2c0-.03-.021-.05-.05-.05h-1.9c-.03 0-.05.02-.05.05z"/><path d="m54 30c0 .03.02.05.05.05h1.9c.029 0 .05-.02.05-.05v-2c0-.03-.021-.05-.05-.05h-1.9c-.03 0-.05.02-.05.05z"/><path d="m55.95 26.05c.029 0 .05-.02.05-.05v-2c0-.03-.021-.05-.05-.05h-1.9c-.03 0-.05.02-.05.05v2c0 .03.02.05.05.05z"/><path d="m53.14 35.12c-.01 0-.02 0-.03 0 0 0 0 0-.01 0s-.02.01-.02.02l-1.08 1.679c-.021.03-.01.061.01.07l1.6 1.03c.011.01.021.01.03.01h.01c.011-.01.021-.01.03-.02l1.08-1.69c.01-.02.01-.04 0-.05s-.01-.01-.02-.021l-1.591-1.029c-.009.001-.009.001-.009.001z"/><path d="m32 5h14v2h-14z"/><path d="m32 9h14v2h-14z"/><path d="m32 13h14v2h-14z"/><path d="m44 17h2v2h-2z"/><path d="m40 17h2v2h-2z"/><path d="m36 17h2v2h-2z"/><path d="m26 17c0-5.514-4.486-10-10-10s-10 4.486-10 10 4.486 10 10 10 10-4.486 10-10zm-13.982 6.928c.047-.017.095-.029.14-.053l3.842-2.124 3.843 2.124c.044.024.091.037.137.055-1.174.677-2.531 1.07-3.98 1.07-1.45 0-2.808-.394-3.982-1.072zm5.24-9.895c.142.302.425.514.754.563l2.913.445-2.141 2.194c-.222.227-.322.546-.271.859l.495 3.033-2.524-1.396c-.15-.083-.316-.125-.483-.125s-.333.042-.483.125l-2.524 1.396.495-3.033c.051-.313-.05-.633-.271-.859l-2.141-2.194 2.913-.445c.329-.05.612-.262.754-.563l1.256-2.679zm4.058 8.929c-.002-.041.004-.081-.003-.123l-.745-4.567 3.147-3.226c.01-.01.015-.023.024-.033.165.637.261 1.3.261 1.987 0 2.37-1.042 4.495-2.684 5.962zm1.796-9.609-4.27-.653-1.694-3.608c2.604.377 4.803 2.006 5.964 4.261zm-8.26-4.261-1.694 3.608-4.27.653c1.161-2.255 3.36-3.884 5.964-4.261zm-6.852 7.908c0-.687.096-1.35.26-1.987.009.01.015.023.024.033l3.147 3.226-.745 4.567c-.007.041-.001.082-.003.123-1.641-1.467-2.683-3.592-2.683-5.962z"/></svg>