<svg id="Layer_1_1_" enable-background="new 0 0 64 64" height="512" viewBox="0 0 64 64" width="512" xmlns="http://www.w3.org/2000/svg"><path d="m35 30v2c2.757 0 5 2.243 5 5h2c0-3.859-3.14-7-7-7z"/><path d="m26 29v2c1.654 0 3 1.346 3 3h2c0-2.757-2.243-5-5-5z"/><path d="m20 39h2c0-1.654 1.346-3 3-3v-2c-2.757 0-5 2.243-5 5z"/><path d="m54.944 34.056c-.123-1.042-.456-2.017-.944-2.895v-4.747l4.707-4.707c.188-.187.293-.441.293-.707v-4.142c1.72-.447 3-1.999 3-3.858 0-2.206-1.794-4-4-4s-4 1.794-4 4c0 1.859 1.28 3.411 3 3.858v3.728l-3 3v-4.586c0-.266-.105-.52-.293-.707l-2.707-2.707v-5.728c1.72-.447 3-1.999 3-3.858 0-2.206-1.794-4-4-4s-4 1.794-4 4c0 1.859 1.28 3.411 3 3.858v5.728l-2.707 2.707c-.188.187-.293.441-.293.707v8.079c-.435.054-.867.132-1.29.257-.007.001-.013.003-.02.004-1.619-2.662-4.545-4.34-7.69-4.34v-1.586l3.707-3.707c.188-.187.293-.441.293-.707v-5.142c1.72-.447 3-1.999 3-3.858 0-2.206-1.794-4-4-4s-4 1.794-4 4c0 1.859 1.28 3.411 3 3.858v4.728l-3.707 3.707c-.188.187-.293.441-.293.707v2.252c-1.064.245-2.088.659-3 1.269-.912-.61-1.936-1.024-3-1.269v-5.394c1.72-.447 3-1.999 3-3.858 0-2.206-1.794-4-4-4s-4 1.794-4 4c0 1.859 1.28 3.411 3 3.858v5.142c-1.413 0-2.774.354-4 .969v-6.969c0-.266-.105-.52-.293-.707l-3.707-3.707v-2.728c1.72-.447 3-1.999 3-3.858 0-2.206-1.794-4-4-4s-4 1.794-4 4c0 1.859 1.28 3.411 3 3.858v6.728l-5 5-5-5v-2.728c1.72-.447 3-1.999 3-3.858 0-2.206-1.794-4-4-4s-4 1.794-4 4c0 1.859 1.28 3.411 3 3.858v3.142c0 .266.105.52.293.707l1.293 1.293-3.293 3.293c-.188.187-.293.441-.293.707v15.146c-.633 1.145-1 2.456-1 3.854 0 4.411 3.589 8 8 8h26v1c0 2.757 2.243 5 5 5h2c0 3.309 2.691 6 6 6 .552 0 1-.447 1-1v-5.101c2.279-.465 4-2.484 4-4.899v-1c4.411 0 8-3.589 8-8 0-4.092-3.088-7.476-7.056-7.944zm1.056-21.056c0-1.103.897-2 2-2s2 .897 2 2-.897 2-2 2-2-.897-2-2zm-18-5c0-1.103.897-2 2-2s2 .897 2 2-.897 2-2 2-2-.897-2-2zm-12 6c0-1.103.897-2 2-2s2 .897 2 2-.897 2-2 2-2-.897-2-2zm22-8c0-1.103.897-2 2-2s2 .897 2 2-.897 2-2 2-2-.897-2-2zm2 11.414 2 2v9.358c-1.182-.95-2.569-1.518-4-1.697v-7.66zm-34-11.414c0-1.103.897-2 2-2s2 .897 2 2-.897 2-2 2-2-.897-2-2zm2.707 11.707c.188-.187.293-.441.293-.707v-1.586l2 2v7.914c-.65.584-1.228 1.252-1.69 2.012-.747-.226-1.521-.34-2.31-.34-.339 0-.672.029-1 .07v-1.07c0-.266-.105-.52-.293-.707l-2.293-2.293zm-14.707-7.707c0-1.103.897-2 2-2s2 .897 2 2-.897 2-2 2-2-.897-2-2zm4 10.414 6 6v1.174c-2.649 1.076-4.597 3.529-4.944 6.468-1.525.18-2.917.793-4.056 1.709v-12.35zm40 39.459c-1.723-.444-3-2.013-3-3.873h3zm4-8.873c0 1.654-1.346 3-3 3h-5-3c-1.654 0-3-1.346-3-3v-1h14zm2-3h-1-5.069c-.203-1.614-.887-3.078-1.906-4.246.128-1.538 1.405-2.754 2.975-2.754v-2c-2.15 0-3.971 1.371-4.676 3.279-1.248-.806-2.731-1.279-4.324-1.279v2c2.967 0 5.431 2.167 5.91 5h-8.91-5.069c-.203-1.614-.887-3.078-1.906-4.246.13-2.09 1.854-3.754 3.975-3.754v-2c-2.697 0-4.983 1.789-5.736 4.243-1.236-.783-2.696-1.243-4.264-1.243v2c2.967 0 5.431 2.167 5.91 5h-19.91c-3.309 0-6-2.691-6-6 0-3.934 4.216-7.107 7.985-5.64.824.321 1.566.855 2.258 1.396l1.414-1.414c-1.286-1.286-2.904-2.028-4.58-2.251-.147-.02.644-1.933.737-2.093.386-.667.901-1.258 1.509-1.732 1.532-1.197 3.706-1.624 5.547-.941.866.284 1.686.744 2.374 1.431l1.414-1.414c-.461-.461-.97-.844-1.505-1.167 1.28-1.953 3.484-3.175 5.847-3.175 1.213 0 2.371.306 3.407.889-.301.323-.585.664-.839 1.035l1.651 1.129c.396-.58.872-1.083 1.407-1.512 1.256-1.008 2.768-1.541 4.374-1.541 2.362 0 4.564 1.221 5.846 3.172-.534.325-1.042.709-1.503 1.171l1.414 1.414c2.263-2.263 5.884-2.316 8.244-.193 1.22 1.096 1.999 2.67 1.999 4.436 0 .553.448 1 1 1 3.309 0 6 2.691 6 6s-2.691 6-6 6z"/><path d="m35 30v2c2.757 0 5 2.243 5 5h2c0-3.859-3.14-7-7-7z"/><path d="m26 29v2c1.654 0 3 1.346 3 3h2c0-2.757-2.243-5-5-5z"/><path d="m20 39h2c0-1.654 1.346-3 3-3v-2c-2.757 0-5 2.243-5 5z"/><path d="m12 41h2v2h-2z"/><path d="m16 41h2v2h-2z"/><path d="m20 41h2v2h-2z"/><path d="m12 41h2v2h-2z"/><path d="m16 41h2v2h-2z"/><path d="m20 41h2v2h-2z"/></svg>