<svg id="Layer_1_1_" enable-background="new 0 0 64 64" height="512" viewBox="0 0 64 64" width="512" xmlns="http://www.w3.org/2000/svg"><path d="m61 2h-58c-.552 0-1 .447-1 1v58c0 .553.448 1 1 1h50c.265 0 .52-.105.707-.293l8-8c.188-.187.293-.441.293-.707v-50c0-.553-.448-1-1-1zm-57 2h56v48h-7c-.552 0-1 .447-1 1v7h-48zm54.586 50-4.586 4.586v-4.586z"/><path d="m49.205 52.606 1.591-1.213-5.307-6.965 9.347 1.558.329-1.973-11.445-1.908-14.738-19.342 8.828-12.176-1.62-1.174-8.474 11.689-8.921-11.708-1.591 1.213 9.285 12.187-10.634 14.668-8.69-1.448-.329 1.973 7.708 1.285-7.354 10.141 1.619 1.174 7.938-10.949 25.861 4.31zm-15.205-19.956 2 2.625v5.544l-2-.333zm-2 7.503-2-.333v-12.42l2 2.625zm-4-15.378v14.711l-2-.333v-12.277l1.756-2.421zm-4 14.045-2-.333v-6.093l2-2.759zm-4-3.668v3.001l-1.941-.323zm18 6.001v-3.253l2.839 3.726z"/><path d="m47 20h10v2h-10z"/><path d="m47 24h10v2h-10z"/><path d="m47 28h10v2h-10z"/><path d="m55 32h2v2h-2z"/><path d="m51 32h2v2h-2z"/><path d="m47 32h2v2h-2z"/><path d="m36 24h-2v5c0 .553.448 1 1 1h5v-2h-2.586l6-6h1.586v-2h-2c-.265 0-.52.105-.707.293l-6.293 6.293z"/></svg>