<svg id="Layer_1_1_" enable-background="new 0 0 64 64" height="512" viewBox="0 0 64 64" width="512" xmlns="http://www.w3.org/2000/svg"><path d="m61.377 55.742c-8.799-3.582-18.1-5.484-27.654-5.692l-.482-5.05c2.975-1.203 6.158-3.078 6.706-4.675.123-.361.031-.762-.239-1.031-1.483-1.484-3.182-6.608-4.546-10.726-.967-2.919-1.71-5.108-2.393-6.567h4.231c.266 0 .52-.105.707-.293l11-11c.391-.391.391-1.023 0-1.414l-4-4c-.391-.391-1.023-.391-1.414 0l-8.707 8.706h-4.697c1.301-1.272 2.111-3.042 2.111-5 0-3.859-3.141-7-7-7s-7 3.141-7 7c0 1.958.81 3.728 2.111 5h-3.163c-.267 0-.521.106-.709.295l-6.761 6.801c-1.609 1.618-1.919 4.118-.752 6.08l1.038 1.746c-.898 1.099-1.453 2.308-1.971 3.491-.465 1.062-.904 2.066-1.591 2.985-.162.214-.442.52-.776.889-1.806 1.991-3.426 3.927-3.426 5.713 0 .321.154.623.415.812.261.188.597.24.901.137 1.547-.513 2.338-.058 3.648.701.748.434 1.597.926 2.719 1.299 1.647.549 4.933 1.056 6.952 1.336l-.51 5.358c-4.603.958-9.144 2.326-13.502 4.1-.377.153-.623.519-.623.925v4.332c0 .553.447 1 1 1h58c.553 0 1-.447 1-1v-4.332c0-.406-.246-.772-.623-.926zm-23.621-15.667c-.62.638-2.178 1.764-4.714 2.844l-1.042-10.919v-6.526c.419 1.174.851 2.48 1.263 3.722 1.422 4.291 2.886 8.713 4.493 10.879zm-11.272-24.075-1.484 3.461-1.484-3.461zm-6.484-7c0-2.757 2.243-5 5-5s5 2.243 5 5c0 1.064-.34 2.047-.909 2.859-1.223-.391-2.091-1.537-2.091-2.859h-2c0 1.822.997 3.434 2.491 4.309-.736.428-1.58.691-2.491.691-2.757 0-5-2.243-5-5zm-9.104 13.506 6.467-6.506h3.978l2.74 6.394c.157.368.519.606.919.606s.762-.238.919-.606l2.74-6.394h6.341c.266 0 .52-.105.707-.293l8.293-8.293 2.586 2.586-10 10h-5.586c-.553 0-1 .447-1 1l.005 11.095 1.895 19.905h-4l-1.906-18.104c-.053-.509-.482-.896-.994-.896s-.941.387-.994.896l-1.906 18.104h-4l1.896-19.905c.002-.032.004-.064.004-.095v-.997c0-.002 0-.004 0-.006v-9.997c0-.404-.243-.77-.617-.924-.375-.156-.804-.069-1.09.217l-4 4c-.337.337-.39.865-.125 1.262l3.416 5.123-3.288 1.952-3.852-6.476c-.7-1.177-.514-2.677.452-3.648zm13.744 24.467c.233-.011.47-.023.716-.042l.353 3.348c-.481.039-.957.08-1.43.127zm.212-2.01.148-1.41.146 1.39c-.1.007-.197.013-.294.02zm-8.565-19.836 1.713-1.713v4.283zm-5.971 17.925c-.929-.31-1.651-.729-2.35-1.133-1.03-.598-2.116-1.232-3.512-1.188.639-1.1 1.794-2.374 2.453-3.102.385-.425.704-.78.893-1.03.827-1.107 1.334-2.266 1.824-3.385.377-.862.752-1.686 1.244-2.435l2.219 3.732c.282.475.896.631 1.37.349l3.461-2.055-1.093 11.485c-3.003-.415-5.399-.868-6.509-1.238zm-6.316 14.292c3.963-1.571 8.071-2.812 12.238-3.696.007.009.015.017.021.025.19.208.459.327.741.327h6c.512 0 .941-.387.994-.896l.071-.672c.608-.063 1.228-.12 1.852-.169l.089.841c.026.254.147.478.325.639.178.16.413.257.669.257h6c.281 0 .551-.119.74-.327s.282-.487.255-.768l-.082-.866c5.208.129 10.333.797 15.341 1.961h-8.254c-1.304 0-2.416.836-2.829 2h-6.171c-1.654 0-3 1.346-3 3 0 .349.069.684.181 1h-25.181zm56 2.656h-28c-.267 0-.514-.103-.713-.307-.184-.179-.287-.426-.287-.693 0-.552.448-1 1-1h7c.553 0 1-.447 1-1 0-.552.448-1 1-1h15.308c1.239.419 2.471.86 3.692 1.344z"/><path d="m24 25h2v2h-2z"/><path d="m57 2h-2c0 2.757-2.243 5-5 5v2c2.757 0 5 2.243 5 5h2c0-2.757 2.243-5 5-5v-2c-2.757 0-5-2.243-5-5zm-1 8.413c-.594-.989-1.424-1.819-2.413-2.413.99-.594 1.819-1.424 2.413-2.413.594.99 1.424 1.819 2.413 2.413-.989.594-1.819 1.424-2.413 2.413z"/><path d="m52 15h-2c0 2.757-2.243 5-5 5v2c2.757 0 5 2.243 5 5h2c0-2.757 2.243-5 5-5v-2c-2.757 0-5-2.243-5-5zm-1 8.413c-.594-.99-1.424-1.819-2.413-2.413.99-.594 1.819-1.424 2.413-2.413.594.99 1.424 1.819 2.413 2.413-.989.594-1.819 1.424-2.413 2.413z"/><path d="m60 23h2v12h-2z"/><path d="m60 37h2v2h-2z"/><path d="m56 26h2v12h-2z"/><path d="m56 40h2v2h-2z"/><path d="m52 29h2v12h-2z"/><path d="m52 43h2v2h-2z"/></svg>