<svg id="Layer_1_1_" enable-background="new 0 0 64 64" height="512" viewBox="0 0 64 64" width="512" xmlns="http://www.w3.org/2000/svg"><path d="m58 36h-2v24h-2v-35h-2v35h-2v-32h-2v32h-2v-24h-2v24h-2v-11h-2v11h-2v-12h-2v12h-2v-20h-2v20h-2v-22h-2v22h-2v-17h-2v17h-2v-6h-2v6h-2v-9h-2v9h-2v-13h-2v13h-2v-5h-2v5h-4v-58h-2v59c0 .553.447 1 1 1h59v-2h-4z"/><path d="m50.53 15.43c-.021 0-.03.01-.04.021l-1.101 1.67c-.01.01-.01.02-.01.029 0 .021.01.03.02.04l1.58 1.051c.011 0 .021.01.03.01s.03-.01.04-.03l1.11-1.66c.01-.02.01-.05-.011-.069l-1.59-1.051c-.008-.011-.018-.011-.028-.011z"/><path d="m53.229 14.92c.011 0 .03-.01.04-.021l1.11-1.67c.01-.02.01-.05-.021-.069l-1.579-1.051c-.011-.01-.021-.01-.03-.01-.021 0-.03.01-.04.021l-1.11 1.67c0 .01-.01.02 0 .04 0 .01.01.02.021.029l1.58 1.051c.01.01.02.01.029.01z"/><path d="m48.31 18.76c-.01 0-.029.01-.029.021l-1.11 1.67c-.021.02-.01.05.01.069l1.58 1.05c.01 0 .021.011.03.011h.01c.01-.011.02-.011.03-.021l1.109-1.67c.021-.02.011-.05-.01-.07l-1.58-1.05c-.02-.01-.031-.02-.04-.01z"/><path d="m8.923 48.385 4.281-10.275 4.964 7.445c.179.269.476.434.798.444.355.038.631-.134.827-.39l9.397-12.217 7.21 5.408c.222.167.506.234.777.185.274-.05.515-.211.664-.445l9.601-15-1.685-1.078-9.02 14.093-7.137-5.355c-.438-.329-1.059-.244-1.393.19l-9.149 11.894-5.226-7.839c-.205-.308-.565-.476-.929-.44-.367.035-.685.271-.826.61l-5 12z"/><path d="m58.754 2h-2.508c-1.79 0-3.246 1.456-3.246 3.246v1.754h2v-1.754c0-.687.559-1.246 1.246-1.246h2.508c.687 0 1.246.559 1.246 1.246 0 .573-.388 1.07-.942 1.209l-.599.149c-1.448.362-2.459 1.658-2.459 3.15v1.246h2v-1.246c0-.573.388-1.07.942-1.209l.599-.149c1.448-.362 2.459-1.658 2.459-3.15 0-1.79-1.456-3.246-3.246-3.246z"/><path d="m56 13h2v2h-2z"/><path d="m9 5h4v2h-4z"/><path d="m15 5h14v2h-14z"/><path d="m9 9h4v2h-4z"/><path d="m15 9h14v2h-14z"/><path d="m9 13h4v2h-4z"/><path d="m15 13h14v2h-14z"/></svg>