<svg id="Layer_1_1_" enable-background="new 0 0 64 64" height="512" viewBox="0 0 64 64" width="512" xmlns="http://www.w3.org/2000/svg"><path d="m61 52h-7v-49c0-.552-.448-1-1-1h-50c-.552 0-1 .448-1 1v54c0 2.757 2.243 5 5 5h50c2.757 0 5-2.243 5-5v-4c0-.552-.448-1-1-1zm-51 1v4c0 1.654-1.346 3-3 3s-3-1.346-3-3v-53h48v48h-41c-.552 0-1 .448-1 1zm50 4c0 1.654-1.346 3-3 3h-46.002c.628-.836 1.002-1.875 1.002-3v-3h48z"/><path d="m22 15h2v3h-7c-.552 0-1 .448-1 1v6c0 .552.448 1 1 1h7v5.341l-6.394 2.74c-.368.157-.606.519-.606.919s.238.762.606.919l6.394 2.74v4.341h-5c-1.654 0-3 1.346-3 3s1.346 3 3 3h12c1.654 0 3-1.346 3-3s-1.346-3-3-3h-5v-4.341l6.205-2.659h14.795c.552 0 1-.448 1-1v-13c0-.552-.448-1-1-1h-13v-2c0-.552-.448-1-1-1h-7v-3h2c2.206 0 4-1.794 4-4s-1.794-4-4-4h-6c-1.858 0-3.411 1.28-3.858 3h-6.142v2h6.142c.447 1.72 2 3 3.858 3zm10 31c0 .551-.449 1-1 1h-12c-.551 0-1-.449-1-1s.449-1 1-1h12c.551 0 1 .449 1 1zm-7-9.088-4.461-1.912 4.461-1.912 4.461 1.912zm9-11.912v-2h12v11h-13.795l-6.205-2.659v-5.341h7c.552 0 1-.448 1-1zm-2-1h-14v-4h14zm-10-15h6c1.103 0 2 .897 2 2s-.897 2-2 2h-6c-1.103 0-2-.897-2-2s.897-2 2-2z"/><path d="m42 30h2v2h-2z"/><path d="m38 30h2v2h-2z"/><path d="m34 30h2v2h-2z"/><path d="m8 10h2v2h-2z"/></svg>