<svg id="Layer_1_1_" enable-background="new 0 0 64 64" height="512" viewBox="0 0 64 64" width="512" xmlns="http://www.w3.org/2000/svg"><path d="m53 2c-4.473 0-9 1.374-9 4v15c0 2.626 4.527 4 9 4v4h-2v2h3c.552 0 1-.448 1-1v-5.096c3.728-.348 7-1.672 7-3.904v-15c0-2.626-4.527-4-9-4zm0 21c-4.547 0-7-1.419-7-2v-2.4c1.736.923 4.374 1.4 7 1.4s5.264-.477 7-1.4v2.4c0 .581-2.453 2-7 2zm0-5c-4.547 0-7-1.419-7-2v-2.4c1.736.923 4.374 1.4 7 1.4s5.264-.477 7-1.4v2.4c0 .581-2.453 2-7 2zm0-5c-4.547 0-7-1.419-7-2v-2.4c1.736.923 4.374 1.4 7 1.4s5.264-.477 7-1.4v2.4c0 .581-2.453 2-7 2zm0-5c-4.547 0-7-1.419-7-2s2.453-2 7-2 7 1.419 7 2-2.453 2-7 2z"/><path d="m9 24.904v5.096c0 .552.448 1 1 1h21v5.012c-4.875.11-12 1.039-12 3.988v18c0 3.158 8.171 4 13 4s13-.842 13-4v-18c0-2.949-7.125-3.878-12-3.988v-5.012h4v-2h-4v-4.025c4.123-.189 8-1.545 8-3.975v-15c0-2.626-4.527-4-9-4s-9 1.374-9 4v15c0 2.43 3.877 3.785 8 3.975v4.025h-20v-4c4.473 0 9-1.374 9-4v-15c0-2.626-4.527-4-9-4s-9 1.374-9 4v15c0 2.232 3.272 3.556 7 3.904zm12 17.4c2.729 1.292 7.662 1.696 11 1.696 3.34 0 8.277-.404 11.005-1.698l.007 3.627c-.354.743-4.337 2.071-11.012 2.071s-10.658-1.328-11-2zm0 6c2.729 1.292 7.662 1.696 11 1.696 3.34 0 8.277-.404 11.005-1.698l.007 3.627c-.354.743-4.337 2.071-11.012 2.071s-10.658-1.328-11-2zm11 11.696c-6.675 0-10.658-1.328-11-2v-3.696c2.729 1.292 7.662 1.696 11 1.696 3.34 0 8.277-.404 11.005-1.698l.007 3.627c-.354.743-4.337 2.071-11.012 2.071zm10.968-20c-.563.754-4.503 2-10.968 2s-10.405-1.246-10.968-2c.533-.714 4.1-1.868 9.968-1.988v1.988h2v-1.988c5.868.12 9.435 1.274 9.968 1.988zm-10.968-36c4.547 0 7 1.419 7 2s-2.453 2-7 2-7-1.419-7-2 2.453-2 7-2zm-7 4.6c1.736.923 4.374 1.4 7 1.4s5.264-.477 7-1.4v2.4c0 .581-2.453 2-7 2s-7-1.419-7-2zm0 5c1.736.923 4.374 1.4 7 1.4s5.264-.477 7-1.4v2.4c0 .581-2.453 2-7 2s-7-1.419-7-2zm0 7.4v-2.4c1.736.923 4.374 1.4 7 1.4s5.264-.477 7-1.4v2.4c0 .581-2.453 2-7 2s-7-1.419-7-2zm-14 2c-4.547 0-7-1.419-7-2v-2.4c1.736.923 4.374 1.4 7 1.4s5.264-.477 7-1.4v2.4c0 .581-2.453 2-7 2zm0-19c4.547 0 7 1.419 7 2s-2.453 2-7 2-7-1.419-7-2 2.453-2 7-2zm-7 4.6c1.736.923 4.374 1.4 7 1.4s5.264-.477 7-1.4v2.4c0 .581-2.453 2-7 2s-7-1.419-7-2zm0 5c1.736.923 4.374 1.4 7 1.4s5.264-.477 7-1.4v2.4c0 .581-2.453 2-7 2s-7-1.419-7-2z"/><path d="m47 29h2v2h-2z"/><path d="m43 29h2v2h-2z"/><path d="m39 29h2v2h-2z"/></svg>