<svg id="Layer_1_1_" enable-background="new 0 0 64 64" height="512" viewBox="0 0 64 64" width="512" xmlns="http://www.w3.org/2000/svg"><path d="m7 38h8c.347 0 .668-.18.851-.475s.199-.663.044-.973l-4-8c-.339-.678-1.45-.678-1.789 0l-4 8c-.155.31-.138.678.044.973s.503.475.85.475zm4-6.764 2.382 4.764h-4.764z"/><path d="m21 38h8c.552 0 1-.447 1-1v-8c0-.553-.448-1-1-1h-8c-.552 0-1 .447-1 1v8c0 .553.448 1 1 1zm1-8h6v6h-6z"/><path d="m39 38c2.757 0 5-2.243 5-5s-2.243-5-5-5-5 2.243-5 5 2.243 5 5 5zm0-8c1.654 0 3 1.346 3 3s-1.346 3-3 3-3-1.346-3-3 1.346-3 3-3z"/><path d="m48.553 35.895 4 2c.14.07.294.105.447.105s.307-.035.447-.105l4-2c.339-.17.553-.516.553-.895v-4c0-.379-.214-.725-.553-.895l-4-2c-.281-.141-.613-.141-.895 0l-4 2c-.338.17-.552.516-.552.895v4c0 .379.214.725.553.895zm1.447-4.277 3-1.5 3 1.5v2.764l-3 1.5-3-1.5z"/><path d="m61 24h-28v-4h22c.552 0 1-.447 1-1v-3.434l4.515-2.709c.301-.18.485-.505.485-.857v-6c0-.352-.184-.677-.485-.857l-5-3c-.317-.189-.712-.189-1.029 0l-5 3c-.302.18-.486.505-.486.857v6c0 .352.184.677.485.857l4.515 2.709v2.434h-14v-3.09c2.833-.478 5-2.942 5-5.91 0-3.309-2.691-6-6-6s-6 2.691-6 6c0 2.967 2.167 5.431 5 5.91v3.09h-13v-3h4c.552 0 1-.447 1-1v-10c0-.553-.448-1-1-1h-10c-.552 0-1 .447-1 1v10c0 .553.448 1 1 1h4v3h-14v-3h4c.34 0 .657-.173.841-.459.184-.285.21-.646.069-.955l-5-11c-.162-.357-.518-.586-.91-.586s-.748.229-.91.586l-5 11c-.141.31-.115.67.069.955.184.286.501.459.841.459h4v4c0 .553.448 1 1 1h23v4h-28c-.552 0-1 .447-1 1v16c0 .553.448 1 1 1h28v4.069c-3.94.495-7 3.859-7 7.931 0 4.411 3.589 8 8 8s8-3.589 8-8c0-4.072-3.06-7.436-7-7.931v-4.069h28c.552 0 1-.447 1-1v-16c0-.553-.448-1-1-1zm-10-17.434 4-2.4 4 2.4v4.867l-4 2.4-4-2.4zm-16 2.434c0-2.206 1.794-4 4-4s4 1.794 4 4-1.794 4-4 4-4-1.794-4-4zm-15-4h8v8h-8zm-12 .417 3.447 7.583h-6.894zm30 48.583c0 3.309-2.691 6-6 6s-6-2.691-6-6 2.691-6 6-6 6 2.691 6 6zm22-14h-56v-14h56z"/><path d="m29.707 53.293-1.414 1.414 2 2c.195.195.451.293.707.293s.512-.098.707-.293l4-4-1.414-1.414-3.293 3.293z"/></svg>