<svg id="Layer_1_1_" enable-background="new 0 0 64 64" height="512" viewBox="0 0 64 64" width="512" xmlns="http://www.w3.org/2000/svg"><path d="m56 2c-3.86 0-7 3.14-7 7 0 3.519 2.613 6.432 6 6.92v4.08h-14v-4.08c3.387-.488 6-3.401 6-6.92 0-3.86-3.14-7-7-7s-7 3.14-7 7c0 3.519 2.613 6.432 6 6.92v4.08h-14v-4.08c3.387-.488 6-3.401 6-6.92 0-3.86-3.14-7-7-7s-7 3.14-7 7c0 3.519 2.613 6.432 6 6.92v4.08h-14v-4.08c3.387-.488 6-3.401 6-6.92 0-3.86-3.14-7-7-7s-7 3.14-7 7c0 3.519 2.613 6.432 6 6.92v5.08c0 .552.448 1 1 1h23v4h-8c-.379 0-.725.214-.895.553l-5 10c-.155.31-.138.678.044.973.183.294.504.474.851.474h13v4.012c-4.875.11-12 1.039-12 3.988v12c0 3.158 8.171 4 13 4s13-.842 13-4v-12c0-2.949-7.125-3.878-12-3.988v-4.012h8c.379 0 .725-.214.895-.553l5-10c.155-.31.138-.678-.044-.973-.183-.294-.504-.474-.851-.474h-13v-4h23c.552 0 1-.448 1-1v-5.08c3.387-.488 6-3.401 6-6.92 0-3.86-3.14-7-7-7zm-21 7c0-2.757 2.243-5 5-5s5 2.243 5 5-2.243 5-5 5-5-2.243-5-5zm-16 0c0-2.757 2.243-5 5-5s5 2.243 5 5-2.243 5-5 5-5-2.243-5-5zm-16 0c0-2.757 2.243-5 5-5s5 2.243 5 5-2.243 5-5 5-5-2.243-5-5zm18 39.304c2.729 1.292 7.662 1.696 11 1.696 3.34 0 8.277-.404 11.005-1.698l.007 3.627c-.354.743-4.337 2.071-11.012 2.071s-10.658-1.328-11-2zm11 11.696c-6.675 0-10.658-1.328-11-2v-3.696c2.729 1.292 7.662 1.696 11 1.696 3.34 0 8.277-.404 11.005-1.698l.007 3.627c-.354.743-4.337 2.071-11.012 2.071zm10.968-14c-.563.754-4.503 2-10.968 2s-10.405-1.246-10.968-2c.533-.714 4.1-1.868 9.968-1.988v1.988h2v-1.988c5.868.12 9.435 1.274 9.968 1.988zm-2.586-10h-20.764l4-8h20.764zm15.618-22c-2.757 0-5-2.243-5-5s2.243-5 5-5 5 2.243 5 5-2.243 5-5 5z"/><path d="m49 51h2v2h-2z"/><path d="m53 51h2v2h-2z"/><path d="m53 55h2v2h-2z"/><path d="m53 47h2v2h-2z"/><path d="m13 51h2v2h-2z"/><path d="m9 51h2v2h-2z"/><path d="m9 55h2v2h-2z"/><path d="m9 47h2v2h-2z"/></svg>