<svg id="Layer_1_1_" enable-background="new 0 0 64 64" height="512" viewBox="0 0 64 64" width="512" xmlns="http://www.w3.org/2000/svg"><path d="m15 9h-6c-.553 0-1 .447-1 1v11h-4v2h56v-2h-4v-10c0-.553-.447-1-1-1h-6c-.553 0-1 .447-1 1v10h-2v-18c0-.553-.447-1-1-1h-6c-.553 0-1 .447-1 1v18h-2v-13c0-.553-.447-1-1-1h-6c-.553 0-1 .447-1 1v13h-2v-7c0-.553-.447-1-1-1h-6c-.553 0-1 .447-1 1v7h-2v-11c0-.553-.447-1-1-1zm-5 12v-10h4v10zm40-9h4v9h-4zm-10-8h4v17h-4zm-10 5h4v12h-4zm-10 6h4v6h-4z"/><path d="m45.293 25.293-13.293 13.293-13.293-13.293-1.414 1.414 14 14c.195.195.451.293.707.293s.512-.098.707-.293l14-14z"/><path d="m24.822 36.582c-3.863.696-5.822 1.847-5.822 3.418v18c0 3.157 8.172 4 13 4s13-.843 13-4v-18c0-1.571-1.959-2.722-5.822-3.418l-.355 1.969c2.823.509 3.897 1.176 4.143 1.454-.577.754-4.514 1.995-10.966 1.995s-10.389-1.241-10.965-1.995c.245-.278 1.319-.945 4.143-1.454zm-3.822 11.722c2.729 1.292 7.662 1.696 11 1.696 3.34 0 8.277-.405 11.005-1.699l.008 3.628c-.355.743-4.338 2.071-11.013 2.071s-10.658-1.328-11-2zm11 11.696c-6.675 0-10.658-1.328-11-2v-3.696c2.729 1.292 7.662 1.696 11 1.696 3.34 0 8.277-.405 11.005-1.699l.008 3.628c-.355.743-4.338 2.071-11.013 2.071zm0-16c3.34 0 8.277-.405 11.005-1.699l.008 3.628c-.355.743-4.338 2.071-11.013 2.071s-10.658-1.328-11-2v-3.696c2.729 1.292 7.662 1.696 11 1.696z"/></svg>