<svg id="Layer_1_1_" enable-background="new 0 0 64 64" height="512" viewBox="0 0 64 64" width="512" xmlns="http://www.w3.org/2000/svg"><path d="m57 51h-1.111c1.301-1.272 2.111-3.042 2.111-5 0-3.86-3.141-7-7-7s-7 3.14-7 7c0 1.958.81 3.728 2.111 5h-1.111c-2.757 0-5 2.243-5 5v1h-3c-1.654 0-3-1.346-3-3v-1.059c4.493-.5 8-4.317 8-8.941 0-4.657-3.556-8.5-8.096-8.954-.448-2.302-2.474-4.046-4.904-4.046h-6v-2.586l1.293 1.293 1.414-1.414-3-3c-.195-.195-.451-.293-.707-.293s-.512.098-.707.293l-3 3 1.414 1.414 1.293-1.293v2.586h-6c-2.43 0-4.456 1.744-4.904 4.046-4.54.454-8.096 4.297-8.096 8.954 0 4.624 3.507 8.442 8 8.941v1.059c0 2.757 2.243 5 5 5h25v2c0 .552.447 1 1 1h20c.553 0 1-.448 1-1v-5c0-2.757-2.243-5-5-5zm-17-7c0 3.86-3.141 7-7 7s-7-3.14-7-7 3.141-7 7-7 7 3.14 7 7zm-36 0c0-3.86 3.141-7 7-7s7 3.14 7 7-3.141 7-7 7-7-3.14-7-7zm8 10v-1.059c4.493-.5 8-4.317 8-8.941 0-4.569-3.425-8.345-7.842-8.917.39-1.204 1.509-2.083 2.842-2.083h14c1.333 0 2.452.879 2.842 2.083-4.417.571-7.842 4.348-7.842 8.917 0 4.624 3.507 8.442 8 8.941v1.059c0 1.13.391 2.162 1.026 3h-18.026c-1.654 0-3-1.346-3-3zm34-8c0-2.757 2.243-5 5-5s5 2.243 5 5-2.243 5-5 5-5-2.243-5-5zm14 14h-18v-4c0-1.654 1.346-3 3-3h12c1.654 0 3 1.346 3 3z"/><path d="m33 24v-5c0-2.757-2.243-5-5-5h-1.111c1.074-1.051 1.806-2.443 2.031-4h9.666l-1.293 1.293 1.414 1.414 3-3c.195-.195.293-.451.293-.707s-.098-.512-.293-.707l-3-3-1.414 1.414 1.293 1.293h-9.666c-.488-3.387-3.401-6-6.92-6-3.859 0-7 3.14-7 7 0 1.958.81 3.728 2.111 5h-1.111c-2.757 0-5 2.243-5 5v5c0 .552.447 1 1 1h20c.553 0 1-.448 1-1zm-16-15c0-2.757 2.243-5 5-5s5 2.243 5 5-2.243 5-5 5-5-2.243-5-5zm14 14h-18v-4c0-1.654 1.346-3 3-3h12c1.654 0 3 1.346 3 3z"/><path d="m7 41h2v2h-2z"/><path d="m13 41h2v2h-2z"/><path d="m14 46h-2c0 .551-.448 1-1 1s-1-.449-1-1h-2c0 1.654 1.346 3 3 3s3-1.346 3-3z"/><path d="m29 41h2v2h-2z"/><path d="m35 41h2v2h-2z"/><path d="m33 45c-1.654 0-3 1.346-3 3h2c0-.551.448-1 1-1s1 .449 1 1h2c0-1.654-1.346-3-3-3z"/><path d="m46 6h10v2h-10z"/><path d="m46 10h10v2h-10z"/><path d="m46 14h10v2h-10z"/><path d="m43 20h7v15.586l-1.293-1.293-1.414 1.414 3 3c.195.195.451.293.707.293s.512-.098.707-.293l3-3-1.414-1.414-1.293 1.293v-15.586h7c.553 0 1-.448 1-1v-16c0-.552-.447-1-1-1h-16c-.553 0-1 .448-1 1v6 10c0 .552.447 1 1 1zm1-16h14v14h-14z"/></svg>