<svg id="Layer_1_1_" enable-background="new 0 0 64 64" height="512" viewBox="0 0 64 64" width="512" xmlns="http://www.w3.org/2000/svg"><path d="m32 62c16.542 0 30-13.458 30-30 0-7.912-3.084-15.114-8.107-20.479l7.814-7.814-1.414-1.414-7.814 7.814c-5.365-5.023-12.567-8.107-20.479-8.107h-29c-.552 0-1 .448-1 1v29c0 16.542 13.458 30 30 30zm19-31h-2v-14.586l2-2zm2-17.491c4.146 4.703 6.738 10.8 6.975 17.491h-6.975zm-6 17.491h-2v-10.586l2-2zm-4 0h-2v-6.586l2-2zm-4 0h-4.586l4.586-4.586zm-26 2h2v21.228c-.693-.531-1.36-1.093-2-1.685zm4 0h2v23.788c-.684-.36-1.351-.749-2-1.163zm4 0h2v25.508c-.678-.231-1.346-.482-2-.762zm4 0h2v26.544c-.674-.122-1.343-.26-2-.43zm4 0h2v26.975c-.673-.024-1.34-.067-2-.137zm2-3.414-18.066-18.066c4.775-4.448 11.1-7.248 18.066-7.495zm-1.414 1.414h-25.561c.246-6.966 3.046-13.291 7.495-18.066zm-22.586 2v11.586c-1.772-3.506-2.828-7.431-2.975-11.586zm2 0h2v17.491c-.714-.81-1.382-1.661-2-2.549zm24 26.975v-26.975h26.975c-.518 14.645-12.33 26.457-26.975 26.975zm0-30.389v-25.561c6.966.246 13.291 3.046 18.066 7.495zm-21.479-19.479-6.107-6.107h15.834c-3.636 1.401-6.931 3.489-9.727 6.107zm-7.521-4.693 6.107 6.107c-2.618 2.796-4.706 6.091-6.107 9.727z"/><path d="m39 42h2v8h2v-8h2v6c0 .265.105.52.293.707l2 2 1.414-1.414-1.707-1.707v-5.586h2v-2h-10z"/><path d="m51 35h2v2h-2z"/><path d="m47 35h2v2h-2z"/><path d="m55 35h2v2h-2z"/></svg>