<svg id="Layer_1_1_" enable-background="new 0 0 64 64" height="512" viewBox="0 0 64 64" width="512" xmlns="http://www.w3.org/2000/svg"><path d="m7 62h50c2.757 0 5-2.243 5-5v-1h-.007c0-.118-.014-.237-.056-.351l-5.937-15.831v-32.818c0-2.757-2.243-5-5-5h-38c-2.757 0-5 2.243-5 5v32.818l-5.937 15.831c-.042.114-.056.233-.056.351h-.007v1c0 2.757 2.243 5 5 5zm50-2h-50c-1.654 0-3-1.346-3-3h19.586l.707.707c.187.188.442.293.707.293h14c.265 0 .52-.105.707-.293l.707-.707h19.586c0 1.654-1.346 3-3 3zm-44-56h38c1.654 0 3 1.346 3 3v32h-44v-32c0-1.654 1.346-3 3-3zm-3.307 37h44.614l5.25 14h-19.557c-.265 0-.52.105-.707.293l-.707.707h-13.172l-.707-.707c-.187-.188-.442-.293-.707-.293h-19.557z"/><path d="m9 51h4v2h-4z"/><path d="m16 51h4v2h-4z"/><path d="m23 51h18v2h-18z"/><path d="m44 51h4v2h-4z"/><path d="m51 51h4v2h-4z"/><path d="m10 47h6v2h-6z"/><path d="m19 47h4v2h-4z"/><path d="m26 47h4v2h-4z"/><path d="m33 47h4v2h-4z"/><path d="m40 47h4v2h-4z"/><path d="m47 47h7v2h-7z"/><path d="m16 43h2v2h-2z"/><path d="m12 43h2v2h-2z"/><path d="m21 43h4v2h-4z"/><path d="m28 43h4v2h-4z"/><path d="m35 43h4v2h-4z"/><path d="m42 43h4v2h-4z"/><path d="m49 43h4v2h-4z"/><path d="m13 37h38c.552 0 1-.448 1-1v-29c0-.552-.448-1-1-1h-38c-.552 0-1 .448-1 1v29c0 .552.448 1 1 1zm1-29h36v27h-36z"/><path d="m19.293 10.293-3 3c-.391.391-.391 1.023 0 1.414l3 3 1.414-1.414-2.293-2.293 2.293-2.293z"/><path d="m30.707 10.293-1.414 1.414 2.293 2.293-2.293 2.293 1.414 1.414 3-3c.391-.391.391-1.023 0-1.414z"/><path d="m32.293 24.293-3 3c-.391.391-.391 1.023 0 1.414l3 3 1.414-1.414-2.293-2.293 2.293-2.293z"/><path d="m43.707 24.293-1.414 1.414 2.293 2.293-2.293 2.293 1.414 1.414 3-3c.391-.391.391-1.023 0-1.414z"/><path d="m34.146 27h6.708v2h-6.708z" transform="matrix(.447 -.894 .894 .447 -4.315 49.019)"/><path d="m26 30h2v2h-2z"/><path d="m22 30h2v2h-2z"/><path d="m18 30h2v2h-2z"/><path d="m40 15h-2v2h1v3h2v-4c0-.552-.448-1-1-1z"/><path d="m38 11h2v2h-2z"/></svg>