<svg id="Layer_1_1_" enable-background="new 0 0 64 64" height="512" viewBox="0 0 64 64" width="512" xmlns="http://www.w3.org/2000/svg"><path d="m46 32c0-3.309-2.691-6-6-6h-8c-.552 0-1 .447-1 1v10c0 .553.448 1 1 1h8c3.309 0 6-2.691 6-6zm-6 4h-7v-8h7c2.206 0 4 1.794 4 4s-1.794 4-4 4z"/><path d="m32 2c-16.542 0-30 12.112-30 27 0 11.771 8.601 22.24 21 25.736v5.264c0 1.103.897 2 2 2h6c1.103 0 2-.897 2-2v-4.037c2.708-.08 5.363-.483 7.919-1.206l4.233 6.773c.183.292.503.47.848.47h9c.363 0 .698-.197.875-.516.176-.317.166-.706-.026-1.015l-6.082-9.731c7.673-5.079 12.233-13.129 12.233-21.738 0-14.888-13.458-27-30-27zm-9 18v25.286c-6.205-3.2-10-8.75-10-14.786 0-9.649 9.645-17.5 21.5-17.5s21.5 7.851 21.5 17.5c0 5.96-3.795 11.545-9.945 14.745-.468-.535-.961-1.046-1.49-1.52 5.388-1.179 9.435-5.989 9.435-11.725v-2c0-6.617-5.383-12-12-12h-17c-1.103 0-2 .897-2 2zm10 33.963v-4.009c.497.028.998.046 1.5.046 1.127 0 2.234-.08 3.314-.21l1.997 3.195c-2.205.578-4.486.905-6.811.978zm0-6.019v-1.944h.783c1.041 0 1.992.527 2.543 1.41l.315.503c-1.201.098-2.434.103-3.641.031zm13.554 12.056-8.532-13.65c-.92-1.472-2.505-2.35-4.239-2.35h-1.783c-.552 0-1 .447-1 1v15h-6v-40h17c5.514 0 10 4.486 10 10v2c0 5.514-4.486 10-10 10-.44 0-.83.288-.957.71-.128.422.036.878.402 1.122 1.872 1.248 3.426 2.848 4.618 4.756l7.133 11.412zm2.153-10.956-.948-1.516c-.145-.232-.302-.453-.457-.677 6.626-3.576 10.698-9.744 10.698-16.351 0-10.752-10.542-19.5-23.5-19.5s-23.5 8.748-23.5 19.5c0 7.095 4.585 13.552 12 17.004v5.148c-11.245-3.402-19-12.951-19-23.652 0-13.785 12.561-25 28-25s28 11.215 28 25c0 7.915-4.208 15.334-11.293 20.044z"/></svg>