<svg id="Layer_1_1_" enable-background="new 0 0 64 64" height="512" viewBox="0 0 64 64" width="512" xmlns="http://www.w3.org/2000/svg"><path d="m57 2h-50c-2.757 0-5 2.243-5 5v39c0 2.757 2.243 5 5 5h17.484l-2.143 5h-3.341c-.553 0-1 .447-1 1 0 2.757 2.243 5 5 5h18c2.757 0 5-2.243 5-5 0-.553-.447-1-1-1h-3.341l-2.143-5h17.484c2.757 0 5-2.243 5-5v-39c0-2.757-2.243-5-5-5zm-50 2h50c1.654 0 3 1.346 3 3v33h-56v-33c0-1.654 1.346-3 3-3zm34 56h-18c-1.304 0-2.416-.836-2.829-2h23.658c-.413 1.164-1.525 2-2.829 2zm-1.517-4h-14.966l2.143-5h10.682zm17.517-7h-50c-1.654 0-3-1.346-3-3v-4h56v4c0 1.654-1.346 3-3 3z"/><path d="m17 35h13v2c0 .553.447 1 1 1h17c1.654 0 3-1.346 3-3v-7c0-1.654-1.346-3-3-3h-3v-2.5c0-1.674-1.183-3.074-2.755-3.416l.745-4.934c.043-.288-.041-.581-.231-.802-.191-.221-.468-.348-.759-.348h-6.42l-3.712-6.496-1.736.992 3.145 5.504h-10.554l3.145-5.504-1.736-.992-3.712 6.496h-6.42c-.291 0-.567.127-.758.348-.189.221-.274.513-.231.801l3 20c.074.489.494.851.989.851zm15-8h2v9h-2zm11-4.5v3.5c0 .553.447 1 1 1h4c.552 0 1 .448 1 1v7c0 .552-.448 1-1 1h-12v-9h3c.553 0 1-.447 1-1v-3.5c0-.827.673-1.5 1.5-1.5s1.5.673 1.5 1.5zm-2.162-7.5-.643 4.258c-1.284.519-2.195 1.774-2.195 3.242v2.5h-6.184c-.414-1.161-1.514-2-2.816-2h-2c-.552 0-1-.448-1-1v-1c0-.552.448-1 1-1h2c.552 0 1 .448 1 1h2c0-1.654-1.346-3-3-3v-1h-2v1c-1.654 0-3 1.346-3 3v1c0 1.654 1.346 3 3 3h2c.552 0 1 .448 1 1v1c0 .552-.448 1-1 1h-2c-.552 0-1-.448-1-1h-2c0 1.654 1.346 3 3 3v1h2v-1c.352 0 .686-.072 1-.184v3.184h-12.139l-2.7-18z"/><path d="m52 6h2v2h-2z"/><path d="m56 10h2v2h-2z"/><path d="m56 6h2v2h-2z"/><path d="m10 36h2v2h-2z"/><path d="m6 32h2v2h-2z"/><path d="m6 36h2v2h-2z"/></svg>